<?xml version="1.0" encoding="utf-8"?>
<!-- Generator: Adobe Illustrator 17.0.0, SVG Export Plug-In . SVG Version: 6.00 Build 0)  -->
<!DOCTYPE svg PUBLIC "-//W3C//DTD SVG 1.1//EN" "http://www.w3.org/Graphics/SVG/1.1/DTD/svg11.dtd">
<svg version="1.1" id="Layer_1" xmlns="http://www.w3.org/2000/svg" xmlns:xlink="http://www.w3.org/1999/xlink" x="0px" y="0px"
	 width="5288.383px" height="792px" viewBox="0 0 5288.383 792" enable-background="new 0 0 5288.383 792" xml:space="preserve">
<path fill="#FFCE1C" d="M5288.383,720c0,39.765-32.235,72-72,72H72c-39.765,0-72-32.235-72-72V72C0,32.235,32.235,0,72,0h5144.383
	c39.765,0,72,32.235,72,72V720z"/>
<g enable-background="new    ">
	<path d="M2134.498,566.222l14.584-90.238h-36.46v-55.602h43.752l7.748-36.003h-36.916v-55.146h43.296l15.496-88.871h48.765
		l-14.128,88.871h30.08l14.128-88.871h51.044l-14.584,88.871h36.46v55.146h-43.296l-8.659,36.003h36.916v55.602h-43.296
		l-15.495,90.238h-48.31l13.672-90.238h-30.535l-14.584,90.238H2134.498z M2236.13,420.382l7.748-36.003h-30.535l-7.748,36.003
		H2236.13z"/>
	<path d="M2448.051,224.41c2.734,0,5.013,1.823,5.013,5.014v231.52c0,5.925,2.279,10.026,7.748,10.026
		c5.469,0,7.748-4.102,7.748-9.57V228.967c0-2.278,2.279-4.558,5.013-4.558h77.022c2.278,0,5.013,1.367,5.013,4.558v244.282
		c0,48.31-34.637,92.973-94.796,92.973c-60.614,0-94.796-45.119-94.796-92.973V229.423c0-3.19,1.823-5.014,4.558-5.014H2448.051z"/>
	<path d="M2729.249,224.41c3.19,0,5.47,2.734,5.925,5.925l62.438,325.861c0.911,5.013-1.367,10.026-6.381,10.026H2717.4
		c-2.735,0-5.47-1.823-5.925-4.558l-9.115-68.362c-0.456-2.278-2.279-3.646-4.558-3.646h-24.61c-1.823,0-3.646,1.823-4.102,4.558
		l-8.659,66.995c-0.456,3.19-3.646,5.014-5.925,5.014h-75.199c-4.102,0-6.38-3.19-5.469-7.748l61.07-328.594
		c0.456-2.279,2.734-5.47,5.469-5.47H2729.249z M2689.144,396.228c-0.911-6.381-1.823-10.482-3.19-10.482s-2.278,3.19-3.19,10.482
		l-5.925,43.295c-0.455,2.278,0.456,4.558,2.735,4.558c14.584,0,15.951,0,15.495-4.102L2689.144,396.228z"/>
	<path d="M2939.805,334.702c-2.735,0-4.558-1.367-5.47-5.014c-2.734-10.938-7.292-16.407-13.672-16.407
		c-4.558,0-6.837,3.646-6.837,8.204c0,14.584,21.421,30.991,48.766,49.677c29.624,20.053,51.955,52.867,51.955,86.591
		c0,61.07-36.46,109.836-96.163,109.836c-69.273,0-101.176-50.133-101.176-123.053c0-2.278,1.822-4.557,5.469-4.557l62.894-3.19
		c3.19,0,5.013,1.823,5.469,5.925c1.823,18.229,9.57,37.827,20.509,37.827c6.381,0,10.482-4.102,10.482-14.584
		c0-10.938-25.522-30.991-56.058-55.602c-30.535-24.61-45.575-58.792-45.575-89.783c0-46.486,34.638-97.074,95.708-97.074
		s98.897,47.854,98.897,102.088c0,3.19-1.823,5.925-5.469,5.925L2939.805,334.702z"/>
	<path d="M3043.258,230.791c0-3.19,2.278-6.381,5.469-6.381h164.069c3.19,0,5.47,2.279,5.47,5.014v79.301
		c0,3.189-2.734,5.924-5.925,5.924h-73.832c-2.734,0-5.013,1.823-5.013,5.014v27.345c0,2.279,1.367,4.103,4.558,4.103h34.637
		c2.278,0,5.014,2.278,5.014,4.557v82.491c0,2.734-2.279,5.013-5.47,5.013h-34.181c-2.279,0-4.558,3.19-4.558,5.925v110.747
		c0,4.103-2.279,6.381-5.925,6.381h-79.301c-2.278,0-5.013-2.734-5.013-5.925V230.791z"/>
</g>
</svg>
