<?xml version="1.0" encoding="utf-8"?>
<!-- Generator: Adobe Illustrator 17.0.0, SVG Export Plug-In . SVG Version: 6.00 Build 0)  -->
<!DOCTYPE svg PUBLIC "-//W3C//DTD SVG 1.1//EN" "http://www.w3.org/Graphics/SVG/1.1/DTD/svg11.dtd">
<svg version="1.1" id="Layer_1" xmlns="http://www.w3.org/2000/svg" xmlns:xlink="http://www.w3.org/1999/xlink" x="0px" y="0px"
	 width="5288.383px" height="1427.714px" viewBox="0 -308.997 5288.383 1427.714"
	 enable-background="new 0 -308.997 5288.383 1427.714" xml:space="preserve">
<rect y="-308.997" fill="#FFFFFF" width="5288.383" height="1427.714"/>
<path fill="#EBEBEC" d="M5288.383,720c0,39.765-32.235,72-72,72H72c-39.765,0-72-32.235-72-72V72C0,32.235,32.235,0,72,0h5144.383
	c39.765,0,72,32.235,72,72V720z"/>
<text transform="matrix(1 0 0 1 4365.0957 347.3545)"><tspan x="0" y="0" fill="#4D4D4D" font-family="'Ubuntu-Bold'" font-size="216.8916">#UASF </tspan><tspan x="-133.823" y="260.27" fill="#4D4D4D" font-family="'Ubuntu-Bold'" font-size="216.8916">#SegWit</tspan></text>
<g transform="translate(-289.60744,-317.50471)">
	<path fill="#F7931A" d="M836.733,764.51c-24.845,99.655-125.779,160.303-225.446,135.452
		c-99.626-24.845-160.274-125.785-135.417-225.434c24.834-99.666,125.767-160.321,225.405-135.475
		C800.936,563.899,861.578,664.85,836.733,764.51L836.733,764.51z"/>
	<path fill="#FFFFFF" d="M738.317,693.009c3.703-24.752-15.143-38.059-40.913-46.935l8.359-33.53l-20.41-5.086l-8.138,32.647
		c-5.366-1.337-10.876-2.598-16.352-3.848l8.197-32.862l-20.398-5.086l-8.365,33.519c-4.441-1.012-8.801-2.011-13.033-3.064
		l0.023-0.105l-28.147-7.028l-5.429,21.799c0,0,15.143,3.47,14.823,3.686c8.266,2.064,9.76,7.534,9.51,11.87l-9.522,38.198
		c0.57,0.145,1.308,0.355,2.122,0.68c-0.68-0.169-1.407-0.355-2.157-0.535l-13.347,53.51c-1.012,2.511-3.575,6.278-9.353,4.848
		c0.203,0.296-14.835-3.703-14.835-3.703l-10.132,23.363l26.56,6.621c4.941,1.238,9.784,2.535,14.55,3.755l-8.446,33.914
		l20.387,5.086l8.365-33.553c5.569,1.511,10.975,2.907,16.265,4.22l-8.336,33.396l20.41,5.087l8.446-33.85
		c34.803,6.586,60.974,3.93,71.99-27.549c8.877-25.345-0.442-39.965-18.753-49.499C725.591,719.9,735.636,711.128,738.317,693.009
		L738.317,693.009z M691.684,758.401c-6.307,25.345-48.982,11.644-62.817,8.208l11.208-44.93
		C653.91,725.132,698.276,731.968,691.684,758.401L691.684,758.401z M697.997,692.642c-5.755,23.055-41.273,11.341-52.795,8.47
		l10.161-40.75C666.885,663.234,703.99,668.593,697.997,692.642z"/>
	<path fill="#4D4D4D" d="M1015.429,646.039c15.085,0,28.118,2.703,39.07,8.01c11.004,5.36,20.084,12.58,27.368,21.66
		c7.185,9.127,12.533,19.794,15.986,32.019c3.43,12.26,5.15,25.438,5.15,39.547c0,21.671-3.97,42.145-11.987,61.445
		c-8.016,19.329-18.893,36.094-32.728,50.394c-13.824,14.283-30.147,25.543-48.97,33.862c-18.794,8.324-39.227,12.487-61.166,12.487
		c-2.837,0-7.825-0.081-14.87-0.227c-7.046-0.145-15.143-0.872-24.212-2.099c-9.127-1.273-18.776-3.157-28.967-5.679
		c-10.185-2.476-19.858-5.947-28.967-10.353l81.454-342.255l72.955-11.307l-29.165,121.454c6.243-2.814,12.533-4.994,18.811-6.58
		C1001.477,646.853,1008.221,646.039,1015.429,646.039L1015.429,646.039z M954.234,847.586c10.987,0,21.34-2.703,31.065-8.01
		c9.755-5.313,18.172-12.487,25.223-21.421c7.051-8.976,12.632-19.085,16.701-30.38c4.069-11.295,6.127-23.078,6.127-35.338
		c0-15.062-2.517-26.81-7.534-35.303c-5.017-8.458-14.3-12.713-27.781-12.713c-4.418,0-10.109,0.843-17.166,2.348
		c-7.08,1.599-13.417,4.918-19.096,9.911L930.72,845.662c1.872,0.331,3.529,0.645,4.941,0.942c1.384,0.32,2.912,0.546,4.435,0.703
		c1.61,0.18,3.453,0.273,5.679,0.273C948.002,847.58,950.787,847.586,954.234,847.586L954.234,847.586z"/>
	<path fill="#4D4D4D" d="M1178.662,898.91h-69.682l58.846-247.623h70.159L1178.662,898.91z M1212.571,621.118
		c-9.725,0-18.544-2.895-26.369-8.696c-7.888-5.767-11.795-14.643-11.795-26.607c0-6.58,1.337-12.754,3.988-18.579
		c2.692-5.813,6.208-10.818,10.615-15.073c4.401-4.22,9.499-7.592,15.289-10.132c5.825-2.5,12.022-3.749,18.625-3.749
		c9.719,0,18.492,2.895,26.345,8.696c7.825,5.831,11.76,14.707,11.76,26.607c0,6.604-1.331,12.801-4.005,18.614
		c-2.656,5.813-6.174,10.818-10.58,15.073c-4.366,4.226-9.51,7.586-15.289,10.103
		C1225.325,619.914,1219.151,621.118,1212.571,621.118L1212.571,621.118z"/>
	<path fill="#4D4D4D" d="M1299.053,589.593l72.984-11.307l-17.922,72.99h78.164l-14.114,57.422h-77.693l-20.695,86.616
		c-1.907,7.22-2.988,13.963-3.29,20.23c-0.343,6.296,0.453,11.702,2.337,16.254c1.872,4.563,5.238,8.08,10.121,10.568
		c4.86,2.529,11.818,3.802,20.945,3.802c7.516,0,14.841-0.715,21.921-2.133c7.04-1.395,14.172-3.337,21.392-5.877l5.197,53.69
		c-9.417,3.453-19.614,6.424-30.6,8.923c-11.004,2.535-24.032,3.755-39.088,3.755c-21.648,0-38.431-3.215-50.388-9.615
		c-11.94-6.447-20.381-15.254-25.433-26.403c-4.982-11.109-7.208-23.915-6.586-38.344c0.645-14.463,2.825-29.664,6.586-45.674
		L1299.053,589.593L1299.053,589.593z"/>
	<path fill="#4D4D4D" d="M1429.209,800.029c0-21.328,3.453-41.442,10.353-60.271c6.889-18.846,16.812-35.326,29.688-49.47
		c12.83-14.074,28.461-25.223,46.86-33.408c18.311-8.138,38.814-12.242,61.41-12.242c14.143,0,26.775,1.337,37.89,4.017
		c11.161,2.703,21.259,6.197,30.391,10.58l-24.032,54.644c-6.278-2.546-12.795-4.79-19.532-6.825
		c-6.743-2.075-14.974-3.075-24.712-3.075c-23.258,0-41.645,8.016-55.33,23.997c-13.632,15.992-20.497,37.518-20.497,64.52
		c0,16.004,3.453,28.944,10.382,38.843c6.894,9.9,19.631,14.823,38.123,14.823c9.127,0,17.933-0.953,26.368-2.814
		c8.499-1.883,16.004-4.255,22.613-7.057l5.203,56.015c-8.813,3.418-18.532,6.505-29.194,9.208
		c-10.685,2.61-23.404,3.965-38.152,3.965c-19.468,0-35.948-2.848-49.429-8.458c-13.487-5.697-24.63-13.26-33.408-22.84
		c-8.824-9.603-15.161-20.817-19.079-33.687C1431.209,827.635,1429.209,814.125,1429.209,800.029L1429.209,800.029z"/>
	<path fill="#4D4D4D" d="M1738.759,905.479c-16.631,0-31.077-2.535-43.331-7.551c-12.219-5.017-22.34-12.057-30.345-21.183
		c-8.016-9.08-14.016-19.84-18.125-32.24c-4.11-12.394-6.086-26.119-6.086-41.157c0-18.864,3.029-37.722,9.15-56.527
		c6.092-18.846,15.132-35.78,27.095-50.83c11.87-15.073,26.514-27.397,43.755-37.006c17.224-9.545,37.036-14.347,59.288-14.347
		c16.329,0,30.699,2.54,43.122,7.557c12.365,5.005,22.549,12.103,30.6,21.183c7.964,9.127,14.016,19.84,18.085,32.257
		c4.098,12.37,6.121,26.13,6.121,41.18c0,18.805-2.988,37.663-8.917,56.527c-5.935,18.771-14.742,35.745-26.368,50.83
		c-11.603,15.05-26.113,27.368-43.541,36.937C1781.858,900.678,1761.675,905.479,1738.759,905.479L1738.759,905.479z
		 M1773.586,703.984c-10.33,0-19.462,3-27.281,8.923c-7.848,5.993-14.44,13.527-19.753,22.613
		c-5.371,9.127-9.353,19.079-12.045,29.897c-2.668,10.841-3.976,21.09-3.976,30.827c0,15.713,2.535,27.95,7.516,36.757
		c5.052,8.76,14.126,13.167,27.316,13.167c10.365,0,19.451-2.976,27.316-8.964c7.801-5.947,14.399-13.487,19.753-22.59
		c5.337-9.08,9.353-19.061,12.045-29.897c2.633-10.807,3.976-21.113,3.976-30.833c0-15.672-2.523-27.938-7.551-36.733
		C1795.88,708.391,1786.765,703.984,1773.586,703.984L1773.586,703.984z"/>
	<path fill="#4D4D4D" d="M1954.02,898.91h-69.74l58.846-247.623h70.194L1954.02,898.91z M1987.876,621.118
		c-9.719,0-18.532-2.895-26.345-8.696c-7.848-5.767-11.789-14.643-11.789-26.607c0-6.58,1.354-12.754,4.011-18.579
		c2.656-5.813,6.197-10.818,10.603-15.073c4.377-4.22,9.522-7.592,15.3-10.132c5.79-2.5,11.987-3.749,18.567-3.749
		c9.743,0,18.544,2.895,26.38,8.696c7.842,5.831,11.801,14.707,11.801,26.607c0,6.604-1.407,12.801-4.04,18.614
		c-2.633,5.813-6.174,10.818-10.563,15.073c-4.418,4.226-9.499,7.586-15.289,10.103
		C2000.676,619.914,1994.491,621.118,1987.876,621.118z"/>
	<path fill="#4D4D4D" d="M2063.54,662.548c5.29-1.546,11.196-3.406,17.62-5.429c6.447-2.023,13.649-3.906,21.695-5.604
		c7.958-1.75,16.94-3.168,26.816-4.267c9.876-1.122,21.131-1.668,33.635-1.668c36.751,0,62.084,10.702,76.071,32.042
		c13.975,21.34,16.393,50.545,7.325,87.563l-32.054,133.702h-70.141l31.065-130.889c1.895-8.173,3.383-16.073,4.482-23.793
		c1.11-7.65,1.046-14.393-0.25-20.23c-1.238-5.767-4.156-10.487-8.685-14.143c-4.598-3.598-11.545-5.406-20.968-5.406
		c-9.086,0-18.329,0.977-27.763,2.86l-45.674,191.595h-70.171L2063.54,662.548z"/>
</g>
</svg>
