<?xml version="1.0" encoding="utf-8"?>
<!-- Generator: Adobe Illustrator 17.0.0, SVG Export Plug-In . SVG Version: 6.00 Build 0)  -->
<!DOCTYPE svg PUBLIC "-//W3C//DTD SVG 1.1//EN" "http://www.w3.org/Graphics/SVG/1.1/DTD/svg11.dtd">
<svg version="1.1" id="Layer_1" xmlns="http://www.w3.org/2000/svg" xmlns:xlink="http://www.w3.org/1999/xlink" x="0px" y="0px"
	 width="5288.383px" height="1427.714px" viewBox="0 0 5288.383 1427.714" enable-background="new 0 0 5288.383 1427.714"
	 xml:space="preserve">
<rect y="0" fill="#FFFFFF" width="5288.383" height="1427.714"/>
<path fill="#EBEBEC" d="M5280.357,1031.058c0,19.882-16.118,36-36,36H36c-19.882,0-36-16.118-36-36v-681.06
	c0-19.882,16.118-36,36-36h5208.357c19.882,0,36,16.118,36,36V1031.058z"/>
<text transform="matrix(1 0 0 1 4492.0288 667.1734)" fill="#4D4D4D" font-family="'Ubuntu-Bold'" font-size="179.2174">#UASF</text>
<text transform="matrix(1 0 0 1 4338.4399 882.234)" fill="#4D4D4D" font-family="'Ubuntu-Bold'" font-size="179.2174">#SegWit</text>
<g transform="translate(-289.60744,-317.50471)">
	<path fill="#F7931A" d="M778.723,1058.612c-20.487,82.173-103.715,132.182-185.898,111.691
		c-82.149-20.487-132.159-103.72-111.662-185.888c20.478-82.182,103.705-132.197,185.864-111.71
		C749.206,893.193,799.21,976.435,778.723,1058.612L778.723,1058.612z"/>
	<path fill="#FFFFFF" d="M697.571,999.654c3.053-20.41-12.487-31.383-33.736-38.702l6.893-27.648l-16.83-4.194l-6.71,26.92
		c-4.425-1.102-8.968-2.142-13.484-3.173l6.759-27.097l-16.82-4.194l-6.898,27.639c-3.662-0.834-7.257-1.658-10.747-2.526
		l0.019-0.087l-23.209-5.795l-4.477,17.975c0,0,12.487,2.861,12.223,3.039c6.816,1.702,8.048,6.212,7.842,9.788l-7.852,31.497
		c0.47,0.12,1.078,0.293,1.75,0.561c-0.561-0.139-1.16-0.293-1.779-0.441l-11.006,44.123c-0.835,2.07-2.948,5.177-7.712,3.998
		c0.167,0.244-12.233-3.053-12.233-3.053l-8.355,19.265l21.901,5.459c4.074,1.021,8.068,2.09,11.998,3.096l-6.964,27.965
		l16.811,4.194l6.898-27.667c4.592,1.246,9.05,2.397,13.412,3.48l-6.874,27.538l16.83,4.195l6.964-27.912
		c28.698,5.431,50.278,3.241,59.361-22.716c7.32-20.899-0.365-32.954-15.463-40.816
		C687.078,1021.828,695.361,1014.595,697.571,999.654L697.571,999.654z M659.119,1053.575c-5.201,20.899-40.39,9.601-51.798,6.768
		l9.242-37.048C627.971,1026.142,664.555,1031.779,659.119,1053.575L659.119,1053.575z M664.324,999.352
		c-4.745,19.011-34.033,9.352-43.534,6.984l8.379-33.602C638.67,975.102,669.266,979.521,664.324,999.352z"/>
	<path fill="#4D4D4D" d="M926.072,960.924c12.439,0,23.185,2.229,32.216,6.605c9.074,4.42,16.561,10.373,22.567,17.86
		c5.925,7.526,10.334,16.322,13.182,26.402c2.828,10.109,4.247,20.976,4.247,32.61c0,17.87-3.274,34.752-9.884,50.666
		c-6.61,15.938-15.579,29.762-26.987,41.554c-11.399,11.777-24.859,21.062-40.38,27.922c-15.497,6.864-32.346,10.297-50.436,10.297
		c-2.339,0-6.452-0.067-12.261-0.187c-5.81-0.12-12.487-0.719-19.965-1.731c-7.526-1.05-15.482-2.603-23.886-4.683
		c-8.398-2.042-16.374-4.904-23.886-8.537l67.165-282.216l60.157-9.323L893.873,968.31c5.148-2.32,10.334-4.118,15.511-5.426
		C914.568,961.595,920.129,960.924,926.072,960.924L926.072,960.924z M875.612,1127.115c9.06,0,17.597-2.229,25.616-6.605
		c8.044-4.381,14.984-10.297,20.798-17.663c5.814-7.401,10.416-15.737,13.771-25.051c3.355-9.314,5.052-19.03,5.052-29.139
		c0-12.42-2.075-22.107-6.212-29.11c-4.137-6.974-11.792-10.483-22.908-10.483c-3.643,0-8.336,0.695-14.155,1.936
		c-5.838,1.318-11.063,4.055-15.746,8.172l-25.606,106.356c1.544,0.273,2.91,0.532,4.074,0.777c1.141,0.264,2.401,0.45,3.657,0.58
		c1.328,0.148,2.847,0.225,4.683,0.225C870.473,1127.11,872.77,1127.115,875.612,1127.115L875.612,1127.115z"/>
	<path fill="#4D4D4D" d="M1060.671,1169.436h-57.458l48.523-204.185h57.852L1060.671,1169.436z M1088.631,940.374
		c-8.019,0-15.291-2.387-21.743-7.171c-6.504-4.755-9.726-12.074-9.726-21.94c0-5.426,1.102-10.517,3.288-15.32
		c2.22-4.793,5.119-8.92,8.753-12.429c3.629-3.48,7.833-6.26,12.607-8.355c4.803-2.061,9.913-3.091,15.358-3.091
		c8.014,0,15.248,2.387,21.724,7.171c6.452,4.808,9.697,12.127,9.697,21.94c0,5.445-1.098,10.555-3.302,15.349
		c-2.19,4.793-5.091,8.92-8.724,12.429c-3.6,3.485-7.842,6.255-12.607,8.331C1099.148,939.382,1094.057,940.374,1088.631,940.374
		L1088.631,940.374z"/>
	<path fill="#4D4D4D" d="M1159.942,914.38l60.181-9.324l-14.778,60.186h64.452l-11.638,47.349h-64.064l-17.065,71.422
		c-1.573,5.953-2.464,11.514-2.713,16.681c-0.283,5.192,0.374,9.649,1.927,13.403c1.544,3.762,4.319,6.663,8.346,8.714
		c4.007,2.085,9.745,3.135,17.271,3.135c6.198,0,12.238-0.59,18.076-1.759c5.805-1.15,11.686-2.752,17.639-4.846l4.285,44.272
		c-7.765,2.847-16.173,5.297-25.232,7.358c-9.074,2.09-19.816,3.096-32.231,3.096c-17.85,0-31.689-2.651-41.549-7.928
		c-9.845-5.316-16.806-12.578-20.972-21.771c-4.108-9.16-5.943-19.72-5.431-31.618c0.532-11.926,2.329-24.46,5.431-37.662
		L1159.942,914.38L1159.942,914.38z"/>
	<path fill="#4D4D4D" d="M1267.266,1087.901c0-17.587,2.847-34.172,8.537-49.698c5.681-15.54,13.863-29.129,24.48-40.792
		c10.579-11.605,23.468-20.798,38.64-27.548c15.099-6.71,32.005-10.094,50.637-10.094c11.662,0,22.078,1.102,31.243,3.312
		c9.203,2.229,17.53,5.11,25.06,8.724l-19.816,45.058c-5.177-2.099-10.551-3.95-16.106-5.628c-5.56-1.711-12.347-2.536-20.377-2.536
		c-19.178,0-34.34,6.61-45.624,19.787c-11.241,13.187-16.901,30.937-16.901,53.202c0,13.197,2.847,23.867,8.561,32.029
		c5.685,8.163,16.187,12.223,31.436,12.223c7.526,0,14.787-0.786,21.742-2.32c7.008-1.553,13.197-3.509,18.646-5.819l4.29,46.189
		c-7.267,2.818-15.281,5.364-24.073,7.593c-8.811,2.152-19.299,3.269-31.459,3.269c-16.053,0-29.642-2.348-40.758-6.974
		c-11.121-4.698-20.309-10.934-27.547-18.833c-7.276-7.918-12.501-17.165-15.732-27.778
		C1268.915,1110.664,1267.266,1099.524,1267.266,1087.901L1267.266,1087.901z"/>
	<path fill="#4D4D4D" d="M1522.515,1174.852c-13.714,0-25.625-2.09-35.73-6.226c-10.076-4.137-18.421-9.942-25.022-17.467
		c-6.61-7.487-11.557-16.36-14.945-26.584c-3.389-10.22-5.018-21.537-5.018-33.937c0-15.555,2.498-31.105,7.545-46.611
		c5.023-15.54,12.477-29.503,22.342-41.913c9.788-12.429,21.863-22.591,36.079-30.514c14.203-7.871,30.539-11.83,48.888-11.83
		c13.464,0,25.314,2.094,35.557,6.231c10.196,4.127,18.593,9.98,25.232,17.467c6.567,7.526,11.557,16.36,14.912,26.598
		c3.379,10.2,5.047,21.546,5.047,33.956c0,15.506-2.464,31.056-7.353,46.611c-4.894,15.478-12.156,29.475-21.743,41.913
		c-9.568,12.41-21.532,22.567-35.903,30.458C1558.053,1170.894,1541.411,1174.852,1522.515,1174.852L1522.515,1174.852z
		 M1551.232,1008.704c-8.518,0-16.048,2.474-22.495,7.358c-6.471,4.942-11.907,11.154-16.288,18.646
		c-4.429,7.526-7.712,15.732-9.932,24.652c-2.2,8.939-3.279,17.39-3.279,25.419c0,12.957,2.09,23.047,6.198,30.309
		c4.166,7.223,11.648,10.857,22.524,10.857c8.547,0,16.039-2.454,22.524-7.391c6.433-4.904,11.873-11.121,16.288-18.627
		c4.401-7.487,7.712-15.717,9.932-24.652c2.171-8.911,3.278-17.409,3.278-25.424c0-12.923-2.08-23.037-6.226-30.289
		C1569.615,1012.338,1562.099,1008.704,1551.232,1008.704L1551.232,1008.704z"/>
	<path fill="#4D4D4D" d="M1700.014,1169.436h-57.506l48.523-204.185h57.88L1700.014,1169.436z M1727.931,940.374
		c-8.014,0-15.281-2.387-21.724-7.171c-6.471-4.755-9.721-12.074-9.721-21.94c0-5.426,1.116-10.517,3.307-15.32
		c2.19-4.793,5.11-8.92,8.743-12.429c3.609-3.48,7.852-6.26,12.616-8.355c4.774-2.061,9.884-3.091,15.31-3.091
		c8.034,0,15.291,2.387,21.752,7.171c6.466,4.808,9.731,12.127,9.731,21.94c0,5.445-1.16,10.555-3.331,15.349
		c-2.171,4.793-5.091,8.92-8.71,12.429c-3.643,3.485-7.833,6.255-12.607,8.331C1738.486,939.382,1733.386,940.374,1727.931,940.374z
		"/>
	<path fill="#4D4D4D" d="M1790.322,974.537c4.362-1.275,9.232-2.809,14.529-4.477c5.316-1.668,11.255-3.221,17.889-4.621
		c6.562-1.443,13.968-2.612,22.112-3.518c8.144-0.925,17.424-1.375,27.735-1.375c30.304,0,51.193,8.825,62.727,26.421
		c11.524,17.596,13.517,41.678,6.04,72.203l-26.431,110.248h-57.837l25.616-107.928c1.562-6.739,2.79-13.254,3.696-19.619
		c0.915-6.308,0.862-11.868-0.206-16.681c-1.021-4.755-3.427-8.647-7.161-11.662c-3.791-2.967-9.52-4.458-17.29-4.458
		c-7.492,0-15.114,0.806-22.893,2.358l-37.662,157.985h-57.862L1790.322,974.537z"/>
</g>
</svg>
