<?xml version="1.0" encoding="utf-8"?>
<!-- Generator: Adobe Illustrator 17.0.0, SVG Export Plug-In . SVG Version: 6.00 Build 0)  -->
<!DOCTYPE svg PUBLIC "-//W3C//DTD SVG 1.1//EN" "http://www.w3.org/Graphics/SVG/1.1/DTD/svg11.dtd">
<svg version="1.1" id="Layer_1" xmlns="http://www.w3.org/2000/svg" xmlns:xlink="http://www.w3.org/1999/xlink" x="0px" y="0px"
	 width="5288.383px" height="792px" viewBox="0 0 5288.383 792" enable-background="new 0 0 5288.383 792" xml:space="preserve">
<rect y="-308.997" fill="#FFFFFF" stroke="#000000" stroke-width="1.8243" stroke-miterlimit="10" width="5288.383" height="1427.714"/>
<path fill="#DADBDC" d="M5288.383,720c0,39.765-32.235,72-72,72H72c-39.765,0-72-32.235-72-72V72C0,32.235,32.235,0,72,0h5144.383
	c39.765,0,72,32.235,72,72V720z"/>
<text transform="matrix(1 0 0 1 4261.2773 336.7151)"><tspan x="0" y="0" fill="#4D4D4D" font-family="'Ubuntu-Bold'" font-size="253.9296">#UASF </tspan><tspan x="-156.676" y="304.716" fill="#4D4D4D" font-family="'Ubuntu-Bold'" font-size="253.9296">#SegWit</tspan></text>
<g transform="translate(-289.60744,-317.50471)">
	<path fill="#F7931A" d="M848.354,766.946c-26.19,105.048-132.586,168.979-237.646,142.783
		C505.69,883.538,441.76,777.136,467.962,672.094c26.178-105.06,132.574-168.997,237.603-142.807
		C810.619,555.477,874.544,661.892,848.354,766.946L848.354,766.946z"/>
	<path fill="#FFFFFF" d="M744.611,691.575c3.903-26.092-15.963-40.118-43.127-49.475l8.812-35.345l-21.514-5.362l-8.579,34.413
		c-5.656-1.409-11.465-2.739-17.237-4.057l8.64-34.64l-21.502-5.362l-8.818,35.332c-4.682-1.066-9.277-2.12-13.738-3.229l0.025-0.11
		l-29.671-7.409l-5.723,22.979c0,0,15.963,3.658,15.626,3.885c8.714,2.175,10.288,7.941,10.025,12.513l-10.037,40.265
		c0.6,0.153,1.379,0.374,2.237,0.717c-0.717-0.178-1.483-0.374-2.273-0.564l-14.069,56.406c-1.066,2.647-3.768,6.618-9.86,5.111
		c0.214,0.312-15.638-3.903-15.638-3.903l-10.681,24.628l27.998,6.979c5.209,1.305,10.313,2.672,15.338,3.958l-8.904,35.749
		l21.49,5.362l8.818-35.369c5.87,1.593,11.569,3.064,17.145,4.449l-8.787,35.204l21.514,5.362l8.904-35.682
		c36.687,6.943,64.274,4.142,75.886-29.039c9.357-26.717-0.466-42.128-19.768-52.178
		C731.197,719.921,741.786,710.675,744.611,691.575L744.611,691.575z M695.454,760.506c-6.649,26.717-51.632,12.274-66.216,8.652
		l11.814-47.361C655.636,725.436,702.403,732.643,695.454,760.506L695.454,760.506z M702.109,691.189
		c-6.066,24.303-43.507,11.955-55.652,8.928l10.711-42.956C669.313,660.188,708.427,665.838,702.109,691.189z"/>
	<path fill="#4D4D4D" d="M1036.721,642.062c15.901,0,29.64,2.849,41.185,8.444c11.6,5.65,21.171,13.26,28.849,22.832
		c7.574,9.621,13.211,20.865,16.851,33.752c3.615,12.923,5.429,26.815,5.429,41.687c0,22.844-4.185,44.426-12.635,64.77
		c-8.45,20.375-19.915,38.047-34.499,53.121c-14.572,15.056-31.779,26.925-51.62,35.694c-19.811,8.775-41.35,13.162-64.476,13.162
		c-2.99,0-8.248-0.086-15.675-0.239c-7.427-0.153-15.963-0.919-25.522-2.212c-9.621-1.342-19.793-3.327-30.535-5.987
		c-10.736-2.61-20.932-6.269-30.535-10.914L949.4,535.397l76.903-11.918L995.56,651.506c6.581-2.966,13.211-5.264,19.829-6.937
		C1022.013,642.921,1029.122,642.063,1036.721,642.062L1036.721,642.062z M972.214,854.517c11.581,0,22.495-2.849,32.747-8.444
		c10.282-5.601,19.155-13.162,26.588-22.581c7.433-9.461,13.316-20.117,17.605-32.024c4.289-11.906,6.458-24.327,6.458-37.251
		c0-15.877-2.653-28.261-7.942-37.214c-5.288-8.916-15.074-13.401-29.284-13.401c-4.657,0-10.656,0.888-18.095,2.476
		c-7.464,1.685-14.143,5.184-20.13,10.448l-32.734,135.962c1.973,0.349,3.719,0.68,5.209,0.993c1.458,0.337,3.07,0.576,4.675,0.742
		c1.697,0.19,3.64,0.288,5.987,0.288C965.645,854.511,968.58,854.517,972.214,854.517L972.214,854.517z"/>
	<path fill="#4D4D4D" d="M1208.787,908.619h-73.453l62.031-261.023h73.956L1208.787,908.619z M1244.531,615.793
		c-10.252,0-19.547-3.052-27.796-9.167c-8.315-6.079-12.433-15.436-12.433-28.047c0-6.937,1.409-13.444,4.204-19.584
		c2.837-6.128,6.544-11.404,11.189-15.889c4.639-4.449,10.013-8.003,16.116-10.681c6.14-2.635,12.672-3.952,19.633-3.952
		c10.245,0,19.492,3.052,27.771,9.167c8.248,6.146,12.396,15.503,12.396,28.047c0,6.961-1.403,13.493-4.222,19.621
		c-2.8,6.128-6.508,11.404-11.152,15.889c-4.602,4.455-10.025,7.997-16.116,10.65
		C1257.975,614.524,1251.467,615.793,1244.531,615.793L1244.531,615.793z"/>
	<path fill="#4D4D4D" d="M1335.693,582.562l76.934-11.918l-18.892,76.94h82.394l-14.878,60.53h-81.897l-21.815,91.303
		c-2.01,7.611-3.15,14.719-3.468,21.325c-0.361,6.636,0.478,12.335,2.463,17.133c1.973,4.81,5.521,8.518,10.668,11.14
		c5.123,2.666,12.458,4.008,22.078,4.008c7.923,0,15.644-0.754,23.108-2.249c7.421-1.471,14.939-3.517,22.55-6.195l5.478,56.596
		c-9.927,3.64-20.675,6.771-32.256,9.406c-11.6,2.672-25.332,3.958-41.203,3.958c-22.82,0-40.51-3.389-53.115-10.135
		c-12.586-6.796-21.484-16.079-26.809-27.832c-5.251-11.71-7.598-25.21-6.943-40.419c0.68-15.246,2.978-31.27,6.943-48.146
		L1335.693,582.562L1335.693,582.562z"/>
	<path fill="#4D4D4D" d="M1472.893,804.386c0-22.483,3.64-43.685,10.914-63.532c7.261-19.866,17.721-37.238,31.294-52.147
		c13.524-14.835,30.001-26.588,49.396-35.216c19.302-8.579,40.915-12.905,64.733-12.905c14.909,0,28.224,1.409,39.941,4.234
		c11.765,2.849,22.409,6.532,32.036,11.153l-25.332,57.601c-6.618-2.684-13.487-5.049-20.589-7.194
		c-7.108-2.188-15.785-3.242-26.049-3.242c-24.517,0-43.899,8.45-58.324,25.295c-14.37,16.857-21.606,39.549-21.606,68.012
		c0,16.87,3.64,30.51,10.944,40.946c7.267,10.436,20.693,15.626,40.186,15.626c9.621,0,18.904-1.005,27.796-2.966
		c8.959-1.985,16.87-4.485,23.837-7.439l5.484,59.047c-9.29,3.603-19.535,6.857-30.774,9.706
		c-11.263,2.751-24.67,4.179-40.216,4.179c-20.522,0-37.894-3.003-52.104-8.916c-14.216-6.005-25.963-13.977-35.216-24.076
		c-9.302-10.123-15.981-21.943-20.111-35.51C1475.001,833.487,1472.893,819.246,1472.893,804.386L1472.893,804.386z"/>
	<path fill="#4D4D4D" d="M1799.195,915.544c-17.531,0-32.759-2.672-45.676-7.96c-12.88-5.288-23.549-12.709-31.987-22.33
		c-8.45-9.572-14.774-20.914-19.106-33.984c-4.332-13.064-6.416-27.532-6.416-43.384c0-19.884,3.193-39.763,9.645-59.586
		c6.422-19.866,15.95-37.716,28.561-53.581c12.513-15.889,27.949-28.88,46.124-39.009c18.156-10.062,39.04-15.123,62.497-15.123
		c17.213,0,32.361,2.678,45.456,7.966c13.034,5.276,23.77,12.758,32.256,22.33c8.395,9.621,14.774,20.914,19.064,34.003
		c4.32,13.04,6.452,27.544,6.452,43.409c0,19.823-3.15,39.702-9.4,59.586c-6.256,19.786-15.54,37.679-27.795,53.581
		c-12.231,15.865-27.526,28.849-45.897,38.936C1844.626,910.482,1823.351,915.544,1799.195,915.544L1799.195,915.544z
		 M1835.907,703.144c-10.889,0-20.516,3.162-28.757,9.406c-8.272,6.318-15.221,14.259-20.822,23.837
		c-5.662,9.621-9.859,20.111-12.697,31.515c-2.813,11.428-4.191,22.231-4.191,32.495c0,16.563,2.672,29.462,7.923,38.746
		c5.325,9.234,14.89,13.879,28.794,13.879c10.926,0,20.503-3.137,28.794-9.449c8.223-6.269,15.178-14.216,20.822-23.812
		c5.625-9.572,9.86-20.093,12.697-31.515c2.776-11.392,4.192-22.256,4.192-32.501c0-16.521-2.66-29.45-7.96-38.721
		C1859.407,707.789,1849.799,703.144,1835.907,703.144L1835.907,703.144z"/>
	<path fill="#4D4D4D" d="M2026.106,908.619h-73.515l62.031-261.023h73.993L2026.106,908.619z M2061.794,615.793
		c-10.246,0-19.535-3.052-27.771-9.167c-8.272-6.079-12.427-15.436-12.427-28.047c0-6.937,1.428-13.444,4.228-19.584
		c2.8-6.128,6.532-11.404,11.177-15.889c4.614-4.449,10.037-8.003,16.128-10.681c6.103-2.635,12.635-3.952,19.572-3.952
		c10.27,0,19.547,3.052,27.808,9.167c8.266,6.146,12.439,15.503,12.439,28.047c0,6.961-1.483,13.493-4.259,19.621
		s-6.508,11.404-11.134,15.889c-4.657,4.455-10.012,7.997-16.116,10.65C2075.287,614.524,2068.767,615.793,2061.794,615.793z"/>
	<path fill="#4D4D4D" d="M2141.552,659.465c5.576-1.63,11.802-3.591,18.573-5.723c6.796-2.132,14.388-4.118,22.869-5.907
		c8.389-1.844,17.856-3.34,28.267-4.498c10.411-1.183,22.274-1.759,35.455-1.759c38.74,0,65.444,11.281,80.188,33.776
		c14.731,22.495,17.28,53.281,7.721,92.302l-33.788,140.938H2226.9l32.747-137.972c1.998-8.616,3.566-16.943,4.724-25.081
		c1.17-8.064,1.103-15.172-0.264-21.325c-1.305-6.079-4.382-11.054-9.155-14.909c-4.847-3.793-12.17-5.699-22.103-5.699
		c-9.577,0-19.321,1.029-29.266,3.015l-48.146,201.964h-73.968L2141.552,659.465z"/>
</g>
</svg>
